<svg xmlns="http://www.w3.org/2000/svg" viewBox="0 0 1440 320">
  <path fill="#0099ff" fill-opacity="1" d="M0,224L18.5,186.7C36.9,149,74,75,111,80C147.7,85,185,171,222,192C258.5,213,295,171,332,128C369.2,85,406,43,443,21.3C480,0,517,0,554,48C590.8,96,628,192,665,229.3C701.5,267,738,245,775,218.7C812.3,192,849,160,886,144C923.1,128,960,128,997,154.7C1033.8,181,1071,235,1108,261.3C1144.6,288,1182,288,1218,261.3C1255.4,235,1292,181,1329,165.3C1366.2,149,1403,171,1422,181.3L1440,192L1440,320L1421.5,320C1403.1,320,1366,320,1329,320C1292.3,320,1255,320,1218,320C1181.5,320,1145,320,1108,320C1070.8,320,1034,320,997,320C960,320,923,320,886,320C849.2,320,812,320,775,320C738.5,320,702,320,665,320C627.7,320,591,320,554,320C516.9,320,480,320,443,320C406.2,320,369,320,332,320C295.4,320,258,320,222,320C184.6,320,148,320,111,320C73.8,320,37,320,18,320L0,320Z"></path>
</svg>